<svg width="22" height="22" viewBox="0 0 22 22" fill="none" xmlns="http://www.w3.org/2000/svg">
<path d="M9.83784 3.36307C9.5628 3.08812 9.18982 2.93365 8.80091 2.93365C8.412 2.93365 8.03902 3.08812 7.76398 3.36307L1.16398 9.96308C0.88902 10.2381 0.734558 10.6111 0.734558 11C0.734558 11.3889 0.88902 11.7619 1.16398 12.0369L7.76398 18.6369C8.04059 18.9041 8.41108 19.0519 8.79563 19.0486C9.18019 19.0453 9.54805 18.891 9.81998 18.6191C10.0919 18.3471 10.2462 17.9793 10.2495 17.5947C10.2528 17.2102 10.105 16.8397 9.83784 16.5631L5.86758 12.4667H19.8009C20.1899 12.4667 20.5629 12.3122 20.838 12.0371C21.1131 11.762 21.2676 11.389 21.2676 11C21.2676 10.611 21.1131 10.238 20.838 9.96292C20.5629 9.68787 20.1899 9.53334 19.8009 9.53334H5.86758L9.83784 5.43694C10.1128 5.1619 10.2673 4.78892 10.2673 4.40001C10.2673 4.0111 10.1128 3.63812 9.83784 3.36307Z" fill="white"/>
</svg>
