<svg width="58" height="58" viewBox="0 0 58 58" fill="none" xmlns="http://www.w3.org/2000/svg">
<g clip-path="url(#clip0_19_10)">
<path d="M30.6528 3.36575C30.3351 3.36978 30.0172 3.51811 29.6201 3.79729C24.5198 7.38326 19.0817 8.47324 13.2149 5.76218C12.7298 5.53803 12.4773 5.67887 12.2409 6.09663C10.9926 8.30204 9.5242 10.3675 8.09837 12.4562C7.52293 13.2992 7.49104 13.877 8.12534 14.7188C10.8334 18.3127 11.4309 22.403 10.7025 26.7469C10.2561 29.409 9.16543 31.9169 8.82964 34.6138C8.41537 37.9412 8.66303 41.1225 10.2777 44.1541C12.1664 47.7002 15.0697 50.0467 18.672 51.6414C21.3516 52.8277 24.1354 53.7979 26.6226 55.3868C27.8308 56.1586 29.0478 56.9364 29.9408 58.1726C30.4845 58.1726 30.9508 58.1726 31.4495 58.1254C33.3195 55.9054 35.7765 54.6526 38.2983 53.5008C40.2851 52.5933 42.3663 51.8928 44.2782 50.8225C49.7759 47.7449 52.8295 43.1816 52.6729 36.7473C52.6174 34.4708 52.1448 32.2453 51.446 30.0735C50.7294 27.8467 50.2443 25.5757 50.3223 23.224C50.4309 19.9471 51.3671 16.9401 53.4311 14.3483C53.8741 13.792 53.7982 13.3759 53.4298 12.8234C51.9459 10.5987 50.4928 8.35294 49.0583 6.09596C48.763 5.63123 48.4973 5.53935 48.0138 5.79961C47.1776 6.24972 46.3059 6.63873 45.3703 6.83195C40.358 7.867 35.7726 6.87405 31.6862 3.801C31.2885 3.50196 30.9706 3.36171 30.6528 3.36575ZM30.6606 5.37413C30.9645 5.37433 31.2717 5.56478 31.9164 5.9493C36.8036 8.86406 41.9503 9.7948 47.4333 7.83698C47.8883 7.6745 48.1502 7.71573 48.4251 8.14783C49.444 9.74906 50.4905 11.3331 51.5542 12.905C51.8514 13.3442 51.8895 13.7014 51.5832 14.1531C48.3376 18.9384 48.1006 24.1297 49.6308 29.5091C50.4598 32.4235 51.2128 35.3307 51.0465 38.3973C51.0215 38.8584 51.0009 39.3146 50.8843 39.7624C49.8616 44.3162 47.2608 47.4616 43.284 49.5312C41.2136 50.6087 38.9991 51.3574 36.8978 52.3629C34.8149 53.3596 32.8008 54.4622 31.1208 56.0816C30.8297 56.3622 30.5788 56.463 30.2428 56.138C27.8106 53.7852 24.7791 52.4596 21.7157 51.194C19.3187 50.2038 16.9039 49.2179 14.9468 47.4649C11.4738 44.3539 9.83807 40.5107 10.3114 35.777C10.5946 32.9445 11.6476 30.3156 12.1809 27.558C13.0877 22.8692 12.5904 18.4024 9.86131 14.3523C9.45928 13.7557 9.46305 13.3263 9.86907 12.7425C10.9032 11.2556 11.8828 9.73022 12.8596 8.20447C13.1358 7.77298 13.391 7.66129 13.9101 7.84575C19.3924 9.79387 24.5419 8.8617 29.4253 5.94121C30.0561 5.56393 30.3566 5.37392 30.6606 5.37413ZM30.667 8.10198C30.3567 8.09639 30.15 8.24031 30.168 8.55612C30.2001 9.12134 29.9245 9.32322 29.3983 9.33223C29.0939 9.33744 28.9455 9.52795 28.9465 9.84436C28.9475 10.1757 29.139 10.2895 29.4259 10.3393C29.7206 10.3904 30.0958 10.3242 30.137 10.7884C30.1766 11.2357 29.8398 11.3682 29.5318 11.5247C26.8713 12.8768 24.6792 14.7953 22.8017 17.093C22.1438 17.8981 22.1631 18.0215 23.0717 18.7862C24.8914 16.6572 26.637 14.4212 29.285 13.1895C29.5291 13.6141 29.459 13.9372 29.46 14.2458C29.4665 16.3454 29.4192 18.4461 29.4826 20.5437C29.5079 21.3818 29.2351 21.7388 28.4216 21.8356C27.5186 21.9432 26.6232 22.1327 25.9065 22.7557C26.6049 24.2719 26.6934 24.3198 28.2115 24.052C29.8978 23.7547 31.612 23.6488 33.2556 24.1127C34.2231 24.3858 34.663 24.0623 35.1524 23.3569C35.5439 22.7925 35.3621 22.5535 34.8253 22.339C34.1269 22.0599 33.403 21.8359 32.6652 21.7645C31.9246 21.6928 31.8005 21.3302 31.8089 20.685C31.838 18.442 31.815 16.1982 31.8264 13.9548C31.8278 13.6888 31.7097 13.3795 32.0098 13.1251C34.5859 14.4599 36.4545 16.5872 38.2339 18.8189C38.9573 18.3093 39.1871 17.8608 38.5835 17.1557C37.9087 16.3674 37.1967 15.6201 36.4227 14.8442C34.9972 13.4826 33.4681 12.3705 31.7553 11.5176C31.4422 11.3617 31.1149 11.2209 31.1565 10.7776C31.2003 10.3108 31.5778 10.3875 31.8729 10.3416C32.1849 10.2932 32.4365 10.1939 32.4245 9.81536C32.4126 9.43851 32.1513 9.3223 31.8416 9.32447C31.3372 9.32802 31.0976 9.11885 31.1245 8.60062C31.14 8.30087 30.9948 8.10789 30.667 8.10198ZM30.6761 12.7445C31.1711 13.1062 31.149 13.5797 30.9478 14.0351C30.8149 14.336 30.5487 14.3065 30.3345 14.054C30.2256 13.4917 30.1156 13.0289 30.6761 12.7445ZM33.1922 15.0125C33.0943 15.0165 32.9907 15.044 32.8803 15.1028C32.4618 15.3258 32.4242 15.7269 32.4262 16.1439C32.431 17.1495 32.4314 18.1552 32.4306 19.1607C32.4292 20.7851 32.4282 20.7843 34.0438 21.1796C34.2389 21.2273 34.4324 21.2829 34.6244 21.3421C36.2093 21.8303 36.2094 21.8307 37.2106 20.4682C37.8269 19.8783 37.7399 19.3667 37.2616 18.7835C36.2567 17.5583 35.2027 16.3869 33.9666 15.3897C33.7301 15.1989 33.4859 15.0005 33.1922 15.0125ZM28.0784 15.026C27.7615 15.0263 27.5072 15.2483 27.2621 15.4589C26.1474 16.4166 25.0934 17.4348 24.1661 18.6618C23.9137 19.065 23.4176 19.3747 23.6917 19.8377C24.1119 20.5472 24.5426 21.2734 25.2133 21.7888C25.3038 21.8583 25.5506 21.7764 25.6998 21.7089C26.4657 21.3622 27.27 21.1375 28.0945 21.0174C28.7146 20.927 28.889 20.6133 28.8747 20.0248C28.8438 18.7598 28.8703 17.4934 28.8693 16.2276C28.8689 15.7961 28.9075 15.3404 28.4182 15.1082C28.2966 15.0505 28.184 15.0258 28.0784 15.026ZM30.7223 15.9632C30.8959 15.9852 30.9826 16.1883 31.0355 16.3907C31.0267 16.7418 31.0142 16.9692 30.9586 17.1857C30.9222 17.3273 30.7885 17.4371 30.637 17.4177C30.3641 17.3828 30.2735 17.167 30.2523 16.9254C30.2224 16.5858 30.1498 16.1927 30.5176 16.0084C30.5968 15.9687 30.6644 15.9559 30.7223 15.9632ZM30.6191 19.094C30.6659 19.0953 30.7191 19.1107 30.7799 19.1425C31.1382 19.3301 31.0729 19.7193 31.0361 20.0569C31.0104 20.293 30.9177 20.5426 30.6494 20.5386C30.329 20.5339 30.2703 20.2492 30.2438 19.9857C30.2326 19.874 30.2423 19.7598 30.2425 19.6469C30.3307 19.3448 30.4162 19.0884 30.6191 19.094ZM19.1605 21.4972C18.2367 21.5083 17.3367 21.8913 17.0705 22.6553C18.4469 22.6323 19.2096 23.4915 19.8223 24.5588C19.994 24.8579 20.1769 25.1515 20.3678 25.4387C21.2933 26.8312 22.7797 27.2628 24.5646 26.5631C23.7821 25.8563 23.1802 25.0662 22.6088 24.1761C22.0933 23.3758 21.6646 22.5933 20.9396 22.0275C20.5214 21.7011 19.9368 21.5244 19.3452 21.4998C19.2836 21.4973 19.2221 21.4964 19.1605 21.4972ZM42.2412 21.5133C41.9293 21.5132 41.5808 21.5513 41.1869 21.6239C40.1159 21.9747 39.5827 22.7959 39.0525 23.6252C38.3834 24.6715 37.7128 25.7174 36.7427 26.6225C39.0399 27.2619 40.042 26.8977 41.159 25.1117C41.9033 23.9215 42.5154 22.5814 44.3163 22.6654C43.7854 21.8603 43.177 21.5138 42.2412 21.5133ZM30.6285 22.1856C30.8329 22.1777 30.984 22.3686 31.114 22.5946C31.0318 23.1176 30.793 23.296 30.3986 23.0416C30.1189 22.8613 30.0269 22.5811 30.3136 22.335C30.4315 22.2338 30.5356 22.1892 30.6285 22.1856ZM33.0283 22.514C33.2011 22.5229 33.3517 22.6364 33.3766 22.8309C33.4256 23.2136 33.2343 23.4205 32.8169 23.3177C32.4502 22.9618 32.4415 22.6889 32.852 22.541C32.9107 22.5198 32.9707 22.511 33.0283 22.514ZM28.2769 22.5285C28.7904 22.6465 28.8608 22.8937 28.609 23.2105C28.44 23.4233 28.1986 23.4165 28.0285 23.2193C27.7271 22.87 27.9581 22.6747 28.2769 22.5285ZM44.053 23.2281C43.7398 23.2415 43.4181 23.3533 43.0858 23.5578C42.5338 23.8974 42.4582 24.1856 42.9573 24.6775C44.1324 25.8353 44.6528 27.2365 44.3426 28.9012C44.2976 29.143 44.1644 29.5466 44.4064 29.6183C45.1815 29.8481 45.4415 30.6584 46.0678 31.031C47.2895 29.5824 47.0514 26.2958 45.5591 24.0028C45.0735 23.4558 44.5751 23.2056 44.053 23.2281ZM17.264 23.2378C16.7177 23.2248 16.1744 23.4575 15.8153 23.9283C15.0504 24.9312 14.586 26.0735 14.4718 27.3224C14.3545 28.6046 14.4876 29.8643 15.1879 31.1635C15.8033 30.5068 16.2815 29.8747 16.9694 29.4858C17.0081 29.464 16.9791 29.3226 16.9785 29.1682C16.7493 27.3165 17.1262 25.7367 18.525 24.5015C18.8561 24.2091 18.7351 23.9682 18.4589 23.7179C18.1158 23.4069 17.689 23.248 17.264 23.2378ZM30.7037 24.2671C29.4875 24.271 28.2797 24.4516 27.8444 24.7921C28.3919 25.2917 29.0753 25.3526 29.8214 25.4542C31.1885 25.6568 32.3926 25.4292 33.6136 24.8022C33.1445 24.4362 31.9199 24.2633 30.7037 24.2671ZM27.0625 25.2351C26.9036 25.2187 26.7416 25.2822 26.5689 25.4981C26.2063 25.9513 25.5663 26.1116 25.2113 26.8942C26.7501 26.548 28.2584 27.3017 29.5298 26.3372C29.5273 26.2473 29.5248 26.1575 29.5224 26.0675C29.0837 25.9621 28.6449 25.8569 28.1441 25.7267C27.7464 25.6936 27.4122 25.2712 27.0625 25.2351ZM34.4589 25.253C33.5581 25.571 32.705 25.8819 31.7961 26.0918C32.289 26.8574 34.9727 27.1267 36.0168 26.5496C35.5086 26.1174 34.9279 25.7919 34.4589 25.253ZM39.7446 27.3773C33.707 27.4023 27.6691 27.4021 21.6314 27.3783C20.8959 27.3755 20.6182 27.5776 20.623 28.3473C20.6559 33.6345 20.5966 38.9229 20.6901 44.2087C20.7208 45.9455 21.7126 47.2974 23.2541 48.152C24.3345 48.7509 25.451 49.2853 26.6074 49.8785C27.7857 50.4918 28.9167 51.0585 30.0257 51.6657C30.477 51.9128 30.8521 51.9156 31.3126 51.6701C33.3921 50.5614 35.4717 49.4495 37.5855 48.4089C39.6975 47.3692 40.7191 45.6686 40.7335 43.3776C40.765 38.3752 40.7303 33.3725 40.7483 28.3699C40.751 27.6285 40.5005 27.3742 39.7446 27.3773ZM38.9341 28.3753C39.6816 28.3729 39.6664 28.8314 39.6657 29.3483C39.6603 33.9216 39.6609 38.4951 39.6553 43.0685C39.6548 43.4702 39.675 43.8827 39.5956 44.2717C39.2911 45.7649 38.4938 46.9001 37.0963 47.5815C35.1581 48.5267 33.2193 49.4715 31.2941 50.4425C30.8354 50.6738 30.4518 50.6666 29.9984 50.4365C28.2805 49.5646 26.5765 48.6555 24.8128 47.8856C22.5114 46.8811 21.4942 45.1698 21.6301 42.7084C21.6301 38.1389 21.6407 33.7379 21.6186 29.3372C21.6155 28.7067 21.7467 28.3815 22.4531 28.383C27.9468 28.395 33.4404 28.3925 38.9341 28.3753ZM17.7199 29.8365C17.5573 33.0103 17.7814 36.1305 17.7084 39.3288C17.8625 40.0527 17.3067 40.8576 18.0169 41.3406C18.5805 41.7239 19.1081 42.2505 19.8206 42.3328C20.0243 42.0779 20.0176 41.8443 20.0179 41.6164C20.0209 38.7137 20.0315 35.8108 20.0135 32.9082C20.0097 32.3087 19.9462 31.6949 19.6871 31.1392C19.3252 30.3629 18.756 29.8624 17.7199 29.8365ZM43.2793 29.8436C43.1491 29.8339 42.9958 29.8778 42.8295 29.9508C41.7339 30.4315 41.3682 31.3447 41.3643 32.4622C41.3533 35.5969 41.3452 38.7318 41.3387 41.8665C41.3383 42.0354 41.3264 42.218 41.5393 42.3409C42.0854 42.2686 42.4516 41.8092 42.9394 41.5874C43.5061 41.3297 43.7069 40.9018 43.7027 40.2789C43.681 37.0292 43.6914 33.7794 43.6855 30.4508C43.6484 30.0244 43.4962 29.8596 43.2793 29.8436ZM16.6666 30.5185C16.4173 30.5438 16.2357 30.7603 16.049 31.0172C15.8957 31.2876 15.6322 31.4353 15.6869 31.7798C16.1223 32.1351 16.5518 32.5448 17.1693 32.6624C17.4142 32.2483 17.2958 31.8383 17.3109 31.447C17.3242 31.104 17.3436 30.7208 16.9411 30.5627C16.8402 30.5231 16.7497 30.5101 16.6666 30.5185ZM44.6285 30.5216C44.477 30.5258 44.297 30.6173 44.0702 30.8489C43.9934 31.4937 43.8811 32.0756 44.0996 32.6402C44.5725 32.6816 44.8039 32.3383 45.1171 32.1712C45.531 31.9503 45.8485 31.6925 45.4036 31.1992C45.1567 30.9254 44.9619 30.5122 44.6285 30.5216Z" fill="#278BFF"/>
<path d="M25.8436 41.996H25.7754L22.4756 39.3142V38.5415L25.8436 35.8532V37.4246L23.8898 38.9246L25.8436 40.4311V41.996Z" fill="#278BFF" fill-opacity="0.996078"/>
<path d="M35.5498 41.996H35.618L38.9178 39.3142V38.5415L35.5498 35.8532V37.4246L37.5036 38.9246L35.5498 40.4311V41.996Z" fill="#278BFF" fill-opacity="0.996078"/>
<path opacity="0.995" d="M27.7111 33.4808C27.3735 33.4808 27.1016 33.7525 27.1016 34.0901V43.7591C27.1016 44.0967 27.3735 44.3684 27.7111 44.3684H33.683C34.0206 44.3684 34.2926 44.0967 34.2926 43.7591V34.0901C34.2926 33.7525 34.0206 33.4808 33.683 33.4808H27.7111ZM28.8938 34.337H32.5004C32.973 34.337 33.3535 34.7175 33.3535 35.1901V41.5277C33.3535 42.0004 32.973 42.3809 32.5004 42.3809H28.8938C28.4212 42.3809 28.0409 42.0004 28.0409 41.5277V35.1901C28.0409 34.7175 28.4212 34.337 28.8938 34.337ZM30.6971 42.7888C30.7718 42.7888 30.8457 42.8036 30.9148 42.8322C30.9838 42.8608 31.0465 42.9027 31.0993 42.9555C31.1521 43.0083 31.194 43.0711 31.2225 43.1401C31.2511 43.2091 31.2658 43.2831 31.2658 43.3578C31.2657 43.5086 31.2058 43.6532 31.0992 43.7599C30.9925 43.8665 30.8479 43.9265 30.6971 43.9265C30.5463 43.9265 30.4016 43.8665 30.295 43.7599C30.1883 43.6532 30.1284 43.5086 30.1284 43.3578C30.1284 43.2831 30.143 43.2091 30.1716 43.1401C30.2002 43.0711 30.2421 43.0083 30.2949 42.9555C30.3477 42.9027 30.4104 42.8608 30.4794 42.8322C30.5484 42.8036 30.6224 42.7888 30.6971 42.7888Z" fill="#278BFF"/>
</g>
<defs>
<clipPath id="clip0_19_10">
<rect width="58" height="58" fill="white"/>
</clipPath>
</defs>
</svg>
