<svg width="41" height="41" viewBox="0 0 41 41" fill="none" xmlns="http://www.w3.org/2000/svg">
<path d="M20.5003 3.41667C11.1045 3.41667 3.41699 11.1042 3.41699 20.5C3.41699 29.8958 11.1045 37.5833 20.5003 37.5833C29.8962 37.5833 37.5837 29.8958 37.5837 20.5C37.5837 11.1042 29.8962 3.41667 20.5003 3.41667ZM20.5003 34.1667C12.9666 34.1667 6.83366 28.0338 6.83366 20.5C6.83366 12.9663 12.9666 6.83333 20.5003 6.83333C28.0341 6.83333 34.167 12.9663 34.167 20.5C34.167 28.0338 28.0341 34.1667 20.5003 34.1667ZM28.3416 12.9492L17.0837 24.2071L12.6591 19.7996L10.2503 22.2083L17.0837 29.0417L30.7503 15.375L28.3416 12.9492Z" fill="#B9B9B9"/>
</svg>
